<?xml version="1.0" encoding="iso-8859-1"?>
<!-- Generator: Adobe Illustrator 17.1.0, SVG Export Plug-In . SVG Version: 6.00 Build 0)  -->
<!DOCTYPE svg PUBLIC "-//W3C//DTD SVG 1.1//EN" "http://www.w3.org/Graphics/SVG/1.1/DTD/svg11.dtd">
<svg version="1.1" id="Capa_1" xmlns="http://www.w3.org/2000/svg" xmlns:xlink="http://www.w3.org/1999/xlink" x="0px" y="0px"
	 viewBox="0 0 313.736 313.736" style="enable-background:new 0 0 313.736 313.736;" xml:space="preserve">
<g>
	<path d="M156.868,45.255C87.119,45.255,30.374,102,30.374,171.749c0,28.19,9.273,54.253,24.923,75.307
		c-11.359,5.875-19.146,17.728-19.146,31.374c0,19.468,15.838,35.306,35.306,35.306c16.376,0,30.181-11.208,34.153-26.355
		c15.677,6.977,33.021,10.862,51.258,10.862s35.581-3.886,51.258-10.862c3.973,15.147,17.777,26.355,34.153,26.355
		c19.468,0,35.306-15.838,35.306-35.306c0-13.646-7.787-25.5-19.146-31.374c15.651-21.054,24.923-47.117,24.923-75.307
		C283.362,102,226.617,45.255,156.868,45.255z M208.125,188h-49.257c-9.374,0-17-7.626-17-17v-63.189c0-8.284,6.716-15,15-15
		s15,6.716,15,15V158h36.257c8.284,0,15,6.716,15,15S216.409,188,208.125,188z"/>
	<path d="M118.334,25.133c2.025-0.481,3.565-2.072,4.02-4.153c0.456-2.093-0.316-4.278-1.964-5.563C107.485,5.331,91.997,0,75.599,0
		C35.441,0,2.771,32.67,2.771,72.827c0,10.48,2.188,20.604,6.504,30.094c0.964,2.117,3.079,3.434,5.521,3.434
		c2.446,0,4.696-1.352,5.732-3.441C40.063,63.505,75.709,35.156,118.334,25.133z"/>
	<path d="M238.138,0c-15.685,0-30.629,4.918-43.22,14.223c-1.97,1.457-2.917,4.022-2.414,6.537c0.474,2.367,2.153,4.18,4.385,4.73
		c42.275,10.409,77.524,38.918,96.709,78.216c0.971,1.989,2.999,3.226,5.292,3.226h0.001c2.275,0,4.271-1.234,5.209-3.229
		c4.556-9.706,6.865-20.094,6.865-30.876C310.965,32.67,278.295,0,238.138,0z"/>
</g>
<g>
</g>
<g>
</g>
<g>
</g>
<g>
</g>
<g>
</g>
<g>
</g>
<g>
</g>
<g>
</g>
<g>
</g>
<g>
</g>
<g>
</g>
<g>
</g>
<g>
</g>
<g>
</g>
<g>
</g>
</svg>
